<?xml version="1.0" encoding="iso-8859-1"?>
<!-- Generator: Adobe Illustrator 19.0.0, SVG Export Plug-In . SVG Version: 6.00 Build 0)  -->
<svg version="1.1" id="Capa_1" xmlns="http://www.w3.org/2000/svg" xmlns:xlink="http://www.w3.org/1999/xlink" x="0px" y="0px"
	 viewBox="0 0 389.12 389.12" style="enable-background:new 0 0 389.12 389.12;" xml:space="preserve">
<path style="fill:#FFFFFF;" d="M61.677,116.053h54.376V58.027c0-9.426,7.641-17.067,17.067-17.067
	c9.426,0,17.067,7.641,17.067,17.067v58.027v34.133v55.537c0,12.535-8.762,22.977-20.48,25.667v96.29H40.96v-96.29
	c-11.718-2.688-20.48-13.131-20.48-25.667v-48.471C20.48,134.499,38.926,116.053,61.677,116.053z"/>
<path style="fill:#602F75;" d="M129.707,334.507H40.96c-3.773,0-6.827-3.053-6.827-6.827v-91.32
	c-12.286-5.047-20.48-16.966-20.48-30.633v-48.473c0-26.481,21.547-48.027,48.027-48.027h47.546v-51.2
	c0-13.174,10.72-23.893,23.893-23.893c13.174,0,23.893,10.72,23.893,23.893V205.72c0,13.667-8.194,25.586-20.48,30.64v91.32
	C136.533,331.453,133.48,334.507,129.707,334.507z M47.787,320.853h75.093v-89.467c0-3.18,2.2-5.939,5.299-6.653
	c8.94-2.046,15.181-9.866,15.181-19.014V58.027c0-5.647-4.593-10.24-10.24-10.24c-5.647,0-10.24,4.593-10.24,10.24v58.027
	c0,3.773-3.053,6.827-6.827,6.827H61.681c-18.954,0-34.374,15.42-34.374,34.374v48.473c0,9.139,6.24,16.961,15.181,19.007
	c3.099,0.713,5.299,3.473,5.299,6.653V320.853z"/>
<path style="fill:#FFFFFF;" d="M116.053,129.707V23.893c0-9.426-7.641-17.067-17.067-17.067l0,0
	c-9.426,0-17.067,7.641-17.067,17.067v105.813"/>
<g>
	<path style="fill:#602F75;" d="M116.053,136.533c-3.773,0-6.827-3.053-6.827-6.827V23.893c0-5.647-4.593-10.24-10.24-10.24
		c-5.647,0-10.24,4.593-10.24,10.24v105.813c0,3.773-3.053,6.827-6.827,6.827c-3.773,0-6.827-3.053-6.827-6.827V23.893
		C75.093,10.72,85.813,0,98.987,0s23.893,10.72,23.893,23.893v105.813C122.88,133.48,119.827,136.533,116.053,136.533z"/>
	<path style="fill:#602F75;" d="M54.613,150.187c-3.773,0-6.827-3.053-6.827-6.827v-20.48c0-3.773,3.053-6.827,6.827-6.827
		s6.827,3.053,6.827,6.827v20.48C61.44,147.133,58.387,150.187,54.613,150.187z"/>
</g>
<path style="fill:#FFFFFF;" d="M327.443,95.573l-54.376-6.827v10.24c0-9.426-7.641-17.067-17.067-17.067
	s-17.067,7.641-17.067,17.067v-3.413v34.133v55.537c0,12.535,8.762,22.977,20.48,25.667v55.33h88.747v-55.33
	c11.718-2.688,20.48-13.131,20.48-25.667v-48.471C368.64,114.019,350.194,95.573,327.443,95.573z"/>
<g>
	<path style="fill:#602F75;" d="M348.16,273.067h-88.747c-3.773,0-6.827-3.053-6.827-6.827v-50.36
		c-12.286-5.053-20.48-16.973-20.48-30.64V95.573c0-1.353,0.393-2.613,1.073-3.68c3.026-9.721,12.114-16.8,22.82-16.8
		c6.501,0,12.401,2.606,16.713,6.833c0.393-0.027,0.8-0.007,1.207,0.046l53.96,6.774c26.281,0.241,47.587,21.693,47.587,48.027
		v48.466c0,13.667-8.194,25.586-20.48,30.64v50.36C354.987,270.013,351.933,273.067,348.16,273.067z M266.24,259.413h75.093v-48.507
		c0-3.18,2.2-5.939,5.299-6.653c8.94-2.046,15.181-9.866,15.181-19.014v-48.466c0-18.954-15.42-34.374-34.374-34.374
		c-0.287,0-0.567-0.02-0.853-0.053l-46.693-5.861v2.5c0,3.773-3.053,6.827-6.827,6.827s-6.827-3.053-6.827-6.827
		c0-5.647-4.593-10.24-10.24-10.24s-10.24,4.593-10.24,10.24v86.253c0,9.146,6.24,16.966,15.181,19.014
		c3.099,0.713,5.299,3.473,5.299,6.653V259.413z"/>
	<path style="fill:#602F75;" d="M273.067,129.707c-3.773,0-6.827-3.053-6.827-6.827V88.747c0-3.773,3.053-6.827,6.827-6.827
		s6.827,3.053,6.827,6.827v34.133C279.893,126.653,276.84,129.707,273.067,129.707z"/>
	<path style="fill:#602F75;" d="M307.2,129.707c-3.773,0-6.827-3.053-6.827-6.827V102.4c0-3.773,3.053-6.827,6.827-6.827
		s6.827,3.053,6.827,6.827v20.48C314.027,126.653,310.973,129.707,307.2,129.707z"/>
	<path style="fill:#602F75;" d="M334.507,129.707c-3.773,0-6.827-3.053-6.827-6.827V102.4c0-3.773,3.053-6.827,6.827-6.827
		s6.827,3.053,6.827,6.827v20.48C341.333,126.653,338.28,129.707,334.507,129.707z"/>
</g>
<polyline style="fill:#EA3457;" points="252.587,382.293 361.813,382.293 361.813,266.24 252.587,266.24 252.587,327.682 "/>
<path style="fill:#602F75;" d="M361.813,389.12H252.587c-3.773,0-6.827-3.053-6.827-6.827s3.053-6.827,6.827-6.827h102.4v-102.4
	h-95.573v54.613c0,3.773-3.053,6.827-6.827,6.827s-6.827-3.053-6.827-6.827v-61.44c0-3.773,3.053-6.827,6.827-6.827h109.227
	c3.773,0,6.827,3.053,6.827,6.827v116.053C368.64,386.067,365.587,389.12,361.813,389.12z"/>
<rect x="27.307" y="286.72" style="fill:#00E7FF;" width="109.227" height="95.573"/>
<path style="fill:#602F75;" d="M136.533,389.12H27.307c-3.773,0-6.827-3.053-6.827-6.827V286.72c0-3.773,3.053-6.827,6.827-6.827
	h109.227c3.773,0,6.827,3.053,6.827,6.827v95.573C143.36,386.067,140.307,389.12,136.533,389.12z M34.133,375.467h95.573v-81.92
	H34.133V375.467z"/>
<rect x="47.787" y="307.2" style="fill:#FFFFFF;" width="27.307" height="27.307"/>
<rect x="314.027" y="286.72" style="fill:#FFE600;" width="27.307" height="27.307"/>
<g>
</g>
<g>
</g>
<g>
</g>
<g>
</g>
<g>
</g>
<g>
</g>
<g>
</g>
<g>
</g>
<g>
</g>
<g>
</g>
<g>
</g>
<g>
</g>
<g>
</g>
<g>
</g>
<g>
</g>
</svg>
